<svg width="36" height="40" viewBox="0 0 36 40" fill="none" xmlns="http://www.w3.org/2000/svg">
<path d="M18.004 7.3C17.0013 7.3 16.1417 6.943 15.425 6.229C14.7083 5.515 14.35 4.65667 14.35 3.654C14.35 2.65133 14.707 1.79167 15.421 1.075C16.135 0.358333 16.9933 0 17.996 0C18.9987 0 19.8583 0.356999 20.575 1.071C21.2917 1.785 21.65 2.64333 21.65 3.646C21.65 4.64867 21.293 5.50833 20.579 6.225C19.865 6.94167 19.0067 7.3 18.004 7.3ZM12.65 40V13.35C10.3833 13.1833 8.19167 12.95 6.075 12.65C3.95833 12.35 1.93333 11.9667 0 11.5L0.75 8.5C3.58333 9.16667 6.4 9.64167 9.2 9.925C12 10.2083 14.9333 10.35 18 10.35C21.0667 10.35 24 10.2083 26.8 9.925C29.6 9.64167 32.4167 9.16667 35.25 8.5L36 11.5C34.0667 11.9667 32.0417 12.35 29.925 12.65C27.8083 12.95 25.6167 13.1853 23.35 13.356V40H20.35V27H15.65V40H12.65Z" fill="white"/>
</svg>
