<svg width="40" height="40" viewBox="0 0 40 40" fill="none" xmlns="http://www.w3.org/2000/svg">
<path d="M7.1 31.25C9.2 29.9167 11.275 28.9083 13.325 28.225C15.375 27.5417 17.6 27.2 20 27.2C22.4 27.2 24.6333 27.5417 26.7 28.225C28.7667 28.9083 30.85 29.9167 32.95 31.25C34.4167 29.45 35.4583 27.6333 36.075 25.8C36.6917 23.9667 37 22.0333 37 20C37 15.1667 35.375 11.125 32.125 7.875C28.875 4.625 24.8333 3 20 3C15.1667 3 11.125 4.625 7.875 7.875C4.625 11.125 3 15.1667 3 20C3 22.0333 3.31667 23.9667 3.95 25.8C4.58333 27.6333 5.63333 29.45 7.1 31.25ZM19.9905 21.5C18.0635 21.5 16.4417 20.8385 15.125 19.5155C13.8083 18.1928 13.15 16.5678 13.15 14.6405C13.15 12.7135 13.8115 11.0917 15.1345 9.775C16.4572 8.45833 18.0822 7.8 20.0095 7.8C21.9365 7.8 23.5583 8.4615 24.875 9.7845C26.1917 11.1072 26.85 12.7322 26.85 14.6595C26.85 16.5865 26.1885 18.2083 24.8655 19.525C23.5428 20.8417 21.9178 21.5 19.9905 21.5ZM19.98 40C17.2083 40 14.6037 39.475 12.166 38.425C9.72833 37.375 7.608 35.9417 5.805 34.125C4.00167 32.3083 2.58333 30.186 1.55 27.758C0.516667 25.33 0 22.7357 0 19.975C0 17.2143 0.525 14.62 1.575 12.192C2.625 9.764 4.05833 7.65 5.875 5.85C7.69167 4.05 9.814 2.625 12.242 1.575C14.67 0.525 17.2643 0 20.025 0C22.7857 0 25.38 0.525 27.808 1.575C30.236 2.625 32.35 4.05 34.15 5.85C35.95 7.65 37.375 9.76667 38.425 12.2C39.475 14.6333 40 17.2288 40 19.9865C40 22.7445 39.475 25.3362 38.425 27.7615C37.375 30.1872 35.95 32.3083 34.15 34.125C32.35 35.9417 30.2312 37.375 27.7935 38.425C25.3558 39.475 22.7513 40 19.98 40Z" fill="white"/>
</svg>
