<svg width="40" height="32" viewBox="0 0 40 32" fill="none" xmlns="http://www.w3.org/2000/svg">
<path d="M20 26C20.5667 26 21.0417 25.8083 21.425 25.425C21.8083 25.0417 22 24.5667 22 24C22 23.4333 21.8083 22.9583 21.425 22.575C21.0417 22.1917 20.5667 22 20 22C19.4333 22 18.9583 22.1917 18.575 22.575C18.1917 22.9583 18 23.4333 18 24C18 24.5667 18.1917 25.0417 18.575 25.425C18.9583 25.8083 19.4333 26 20 26ZM20 18C20.5667 18 21.0417 17.8083 21.425 17.425C21.8083 17.0417 22 16.5667 22 16C22 15.4333 21.8083 14.9583 21.425 14.575C21.0417 14.1917 20.5667 14 20 14C19.4333 14 18.9583 14.1917 18.575 14.575C18.1917 14.9583 18 15.4333 18 16C18 16.5667 18.1917 17.0417 18.575 17.425C18.9583 17.8083 19.4333 18 20 18ZM20 10C20.5667 10 21.0417 9.80833 21.425 9.425C21.8083 9.04167 22 8.56667 22 8C22 7.43333 21.8083 6.95833 21.425 6.575C21.0417 6.19167 20.5667 6 20 6C19.4333 6 18.9583 6.19167 18.575 6.575C18.1917 6.95833 18 7.43333 18 8C18 8.56667 18.1917 9.04167 18.575 9.425C18.9583 9.80833 19.4333 10 20 10ZM36 32H4C2.9 32 1.95833 31.6083 1.175 30.825C0.391667 30.0417 0 29.1 0 28V20C1.1 20 2.04167 19.6083 2.825 18.825C3.60833 18.0417 4 17.1 4 16C4 14.9 3.60833 13.9583 2.825 13.175C2.04167 12.3917 1.1 12 0 12V4C0 2.9 0.391667 1.95833 1.175 1.175C1.95833 0.391667 2.9 0 4 0H36C37.1 0 38.0417 0.391667 38.825 1.175C39.6083 1.95833 40 2.9 40 4V12C38.9 12 37.9583 12.3917 37.175 13.175C36.3917 13.9583 36 14.9 36 16C36 17.1 36.3917 18.0417 37.175 18.825C37.9583 19.6083 38.9 20 40 20V28C40 29.1 39.6083 30.0417 38.825 30.825C38.0417 31.6083 37.1 32 36 32Z" fill="white"/>
</svg>
