<svg width="37" height="36" viewBox="0 0 37 36" fill="none" xmlns="http://www.w3.org/2000/svg">
<path d="M0.5 35.9998V29.5998L29.25 0.899805C29.5167 0.633138 29.8333 0.424805 30.2 0.274805C30.5667 0.124805 30.95 0.0498047 31.35 0.0498047C31.7167 0.0498047 32.0833 0.124805 32.45 0.274805C32.8167 0.424805 33.15 0.633138 33.45 0.899805L35.65 3.0998C35.95 3.3998 36.1667 3.73314 36.3 4.0998C36.4333 4.46647 36.5 4.83314 36.5 5.1998C36.5 5.56647 36.425 5.94147 36.275 6.3248C36.125 6.70814 35.9167 7.03314 35.65 7.2998L6.9 35.9998H0.5ZM31.45 7.1498L33.45 5.1498L31.4 3.0998L29.4 5.0998L31.45 7.1498Z" fill="white"/>
</svg>
