<svg width="41" height="34" viewBox="0 0 41 34" fill="none" xmlns="http://www.w3.org/2000/svg">
<path d="M29.85 34L29.35 30.7C28.7833 30.5333 28.2083 30.2917 27.625 29.975C27.0417 29.6583 26.55 29.3 26.15 28.9L23.4 29.5L22.15 27.4L24.5 25.2C24.4333 24.9 24.4 24.4833 24.4 23.95C24.4 23.4167 24.4333 23 24.5 22.7L22.15 20.5L23.4 18.4L26.15 19C26.55 18.6 27.0417 18.2417 27.625 17.925C28.2083 17.6083 28.7833 17.3667 29.35 17.2L29.85 13.9H32.55L33.05 17.2C33.6167 17.3667 34.1917 17.6083 34.775 17.925C35.3583 18.2417 35.85 18.6 36.25 19L39 18.4L40.25 20.5L37.9 22.7C37.9667 23 38 23.4167 38 23.95C38 24.4833 37.9667 24.9 37.9 25.2L40.25 27.4L39 29.5L36.25 28.9C35.85 29.3 35.3583 29.6583 34.775 29.975C34.1917 30.2917 33.6167 30.5333 33.05 30.7L32.55 34H29.85ZM0.5 31.8V27.1C0.5 25.9333 0.791667 24.8833 1.375 23.95C1.95833 23.0167 2.8 22.3 3.9 21.8C6.3 20.7333 8.525 19.9667 10.575 19.5C12.625 19.0333 14.6 18.8 16.5 18.8H17.65C16.95 20.5 16.6333 22.7417 16.7 25.525C16.7667 28.3083 17.3333 30.4 18.4 31.8H0.5ZM31.2 27.95C32.4 27.95 33.3667 27.5833 34.1 26.85C34.8333 26.1167 35.2 25.15 35.2 23.95C35.2 22.75 34.8333 21.7833 34.1 21.05C33.3667 20.3167 32.4 19.95 31.2 19.95C30 19.95 29.0333 20.3167 28.3 21.05C27.5667 21.7833 27.2 22.75 27.2 23.95C27.2 25.15 27.5667 26.1167 28.3 26.85C29.0333 27.5833 30 27.95 31.2 27.95ZM16.5 15.75C14.3 15.75 12.5 15.05 11.1 13.65C9.7 12.25 9 10.45 9 8.25C9 6.05 9.7 4.25 11.1 2.85C12.5 1.45 14.3 0.75 16.5 0.75C18.7 0.75 20.5 1.45 21.9 2.85C23.3 4.25 24 6.05 24 8.25C24 10.45 23.3 12.25 21.9 13.65C20.5 15.05 18.7 15.75 16.5 15.75Z" fill="white"/>
</svg>
