<svg width="200" height="200" viewBox="0 0 200 200" fill="none" xmlns="http://www.w3.org/2000/svg">
<circle cx="100" cy="100" r="95" fill="#181818" stroke="#2D2D2D" stroke-width="10"/>
<path d="M155 129.799C155 130.281 154.656 130.695 154.182 130.783L47.4914 150.539C46.5994 150.704 45.966 149.691 46.5048 148.961L102.815 72.68C103.302 72.0198 102.831 71.0861 102.01 71.0861H57.6546C57.1023 71.0861 56.6546 70.6383 56.6546 70.0861V50C56.6546 49.4477 57.1023 49 57.6546 49H153.02C153.84 49 154.312 49.9333 153.825 50.5935L97.3435 127.181C96.8567 127.841 97.328 128.775 98.1484 128.775H154C154.552 128.775 155 129.222 155 129.775V129.799Z" fill="white"/>
</svg>
