<svg width="280" height="261" viewBox="0 0 280 261" fill="none" xmlns="http://www.w3.org/2000/svg">
<path d="M280 208.048C280 208.53 279.656 208.943 279.182 209.031L1.48946 260.538C0.597715 260.704 -0.0359738 259.692 0.502081 258.962L148.522 58.1076C149.008 57.4474 148.537 56.5143 147.717 56.5143H29.7721C29.2199 56.5143 28.7721 56.0666 28.7721 55.5143V0.999998C28.7721 0.447714 29.2199 0 29.7721 0H278.022C278.842 0 279.313 0.932576 278.827 1.59289L130.885 202.536C130.398 203.197 130.87 204.129 131.69 204.129H279C279.552 204.129 280 204.577 280 205.129V208.048Z" fill="white"/>
</svg>
