<svg width="34" height="35" viewBox="0 0 34 35" fill="none" xmlns="http://www.w3.org/2000/svg">
<path d="M34 27.7236C34 27.8905 33.8822 28.0342 33.7185 28.0669L1.40807 34.5191C0.528753 34.6947 -0.119441 33.7136 0.387044 32.9736L16.6988 9.1434C17.1531 8.47973 16.6779 7.57855 15.8736 7.57855H3.70827C3.15599 7.57855 2.70827 7.13084 2.70827 6.57855V1C2.70827 0.447715 3.15599 0 3.70827 0H32.1047C32.9087 0 33.384 0.900774 32.9302 1.56448L16.3507 25.8092C15.8968 26.4729 16.3721 27.3736 17.1761 27.3736H33.65C33.8433 27.3736 34 27.5303 34 27.7236V27.7236Z" fill="white"/>
</svg>
