<svg width="190" height="75" viewBox="0 0 190 75" fill="none" xmlns="http://www.w3.org/2000/svg">
<style>
        path {
            fill: black;
        }
        @media (prefers-color-scheme: dark) {
            path { fill: white; }
        }
</style>
<path d="M189.258 59.4157C189.258 59.8112 188.954 60.1402 188.56 60.1712L2.01225 74.8418C1.18737 74.9066 0.645075 73.9988 1.09322 73.3032L36.8654 17.7814C37.2941 17.1159 36.8164 16.2398 36.0247 16.2398H8.47951C7.92722 16.2398 7.47951 15.792 7.47951 15.2398V1C7.47951 0.447716 7.92722 0 8.47951 0H68.7613C69.5528 0 70.0306 0.875756 69.6022 1.54124L33.8302 57.1165C33.4018 57.782 33.8796 58.6578 34.671 58.6578H188.501C188.919 58.6578 189.258 58.9971 189.258 59.4157Z" fill="white"/>
<path d="M120.72 57.0954C120.049 57.0954 119.569 56.4478 119.763 55.8057L136.198 1.50134C136.326 1.07953 136.715 0.791016 137.156 0.791016H152.265C152.749 0.791016 153.164 1.13889 153.249 1.61632L156.968 22.5749C157.085 23.2776 157.173 24.0096 157.231 24.7709C157.348 25.4736 157.465 26.1763 157.582 26.879C157.641 27.6403 157.729 28.4015 157.846 29.1628C157.882 29.3776 157.915 29.5923 157.945 29.8071C157.995 30.1567 158.463 30.2081 158.549 29.8655C158.724 29.397 158.871 28.9286 158.988 28.4601C159.339 27.5232 159.691 26.5862 160.042 25.6493C160.452 24.6538 160.862 23.7168 161.272 22.8384L171.019 1.37749C171.181 1.02034 171.537 0.791016 171.929 0.791016H186.91C187.453 0.791016 187.897 1.2246 187.91 1.76762L189.18 56.072C189.193 56.6333 188.742 57.0954 188.181 57.0954H176.407C175.857 57.0954 175.411 56.6516 175.407 56.1019L175.238 30.129C175.238 29.9534 175.238 29.7777 175.238 29.602C175.238 29.4365 175.238 29.2856 175.238 29.1494C175.238 29.0419 175.218 28.9357 175.194 28.8311C175.165 28.7074 175.15 28.5838 175.15 28.4601C175.15 28.2259 175.15 28.0209 175.15 27.8452C175.15 27.3768 175.15 26.9083 175.15 26.4398C175.205 25.9458 175.234 25.4518 175.238 24.9577C175.238 24.8919 175.245 24.8263 175.256 24.7614C175.299 24.5186 175.322 24.2566 175.325 23.9753C175.326 23.9202 175.331 23.8652 175.339 23.8108C175.384 23.5197 175.408 23.2286 175.413 22.9375C175.414 22.8716 175.42 22.806 175.432 22.7412C175.477 22.4925 175.501 22.2659 175.501 22.0614C175.502 22.0524 175.503 22.0418 175.504 22.033C175.534 21.8827 175.374 21.8494 175.321 21.9931C174.874 23.2028 174.408 24.3923 173.92 25.5614C173.393 26.9083 172.808 28.2551 172.164 29.602L159.609 56.5181C159.444 56.8703 159.091 57.0954 158.702 57.0954H150.86C150.378 57.0954 149.965 56.7519 149.876 56.2782L144.934 29.6898C144.641 28.343 144.377 26.9668 144.143 25.5614C144.032 24.8937 143.921 24.2194 143.809 23.5384C143.743 23.1303 143.152 23.1325 143.089 23.5412C142.972 24.2439 142.826 24.9466 142.65 25.6493C142.533 26.4105 142.386 27.1718 142.211 27.9331C142.035 28.6358 141.83 29.3678 141.596 30.129L134.074 56.371C133.951 56.7998 133.559 57.0954 133.113 57.0954H120.72Z" fill="white"/>
<path d="M73.7109 56.5485C73.5403 56.884 73.1958 57.0954 72.8194 57.0954H58.7141C57.9705 57.0954 57.487 56.3126 57.82 55.6476L85.0145 1.34325C85.184 1.00477 85.5301 0.791016 85.9087 0.791016H103.277C103.75 0.791016 104.158 1.12222 104.256 1.58493L115.693 55.8893C115.824 56.5109 115.349 57.0954 114.714 57.0954H101.56C101.088 57.0954 100.68 56.7654 100.582 56.3038L98.6355 47.1707C98.5372 46.7091 98.1295 46.3791 97.6575 46.3791H79.4924C79.116 46.3791 78.7715 46.5905 78.6009 46.9261L73.7109 56.5485ZM85.0815 32.4812C84.7703 33.1443 85.2542 33.9061 85.9868 33.9061H95.1389C95.77 33.9061 96.2433 33.3288 96.1195 32.71L93.7236 20.7303C93.6064 20.0862 93.4893 19.4713 93.3722 18.8857C93.3137 18.3001 93.2551 17.7145 93.1965 17.129C93.1965 17.0861 93.1926 17.0431 93.1847 17.0002C93.1568 16.8475 93.1087 16.6968 93.1087 16.5415C93.1087 16.5317 93.1087 16.5226 93.1087 16.5141C93.1087 16.1627 93.0794 15.8114 93.0209 15.46C92.9754 15.187 92.5977 15.1581 92.5132 15.4217C92.3896 15.8069 92.266 16.2004 92.1425 16.6019C91.9082 17.3046 91.6447 18.0366 91.3519 18.7979C91.2348 19.1492 91.0884 19.5299 90.9127 19.9398C90.7956 20.2911 90.6492 20.6425 90.4735 20.9938L85.0815 32.4812Z" fill="white"/>
</svg>
